<svg xmlns="http://www.w3.org/2000/svg" version="1.1" xmlns:xlink="http://www.w3.org/1999/xlink" xmlns:svgjs="http://svgjs.dev/svgjs" width="1000" height="436" viewBox="0 0 1000 436"><g transform="matrix(1,0,0,1,-0.6060606060606233,0.3988915934226043)"><svg viewBox="0 0 396 173" data-background-color="#d9bca9" preserveAspectRatio="xMidYMid meet" height="436" width="1000" xmlns="http://www.w3.org/2000/svg" xmlns:xlink="http://www.w3.org/1999/xlink"><g id="tight-bounds" transform="matrix(1,0,0,1,0.2400000000000091,-0.15827579280301052)"><svg viewBox="0 0 395.52 173.31655158560602" height="173.31655158560602" width="395.52"><g><svg viewBox="0 0 458.6954867996718 200.99999999999997" height="173.31655158560602" width="395.52"><g><rect width="8.574226094175552" height="200.99999999999997" x="177.2244531583265" y="0" fill="#000000" opacity="1" stroke-width="0" stroke="transparent" fill-opacity="1" class="rect-o-0" data-fill-palette-color="primary" rx="1%" id="o-0" data-palette-color="#000000"></rect></g><g transform="matrix(1,0,0,1,208.24429730008202,0.4999999999999858)"><svg viewBox="0 0 250.45118949958982 200" height="200" width="250.45118949958982"><g id="textblocktransform"><svg viewBox="0 0 250.45118949958982 200" height="200" width="250.45118949958982" id="textblock"><g><svg viewBox="0 0 250.45118949958982 200" height="200" width="250.45118949958982"><g transform="matrix(1,0,0,1,0,0)"><svg width="250.45118949958982" viewBox="-12.150003433227539 -34.75 157.25001525878906 116.39999389648438" height="200" data-palette-color="#000000"><svg></svg><svg></svg><g class="wordmark-text-0" data-fill-palette-color="primary" id="text-0"><path xmlns="http://www.w3.org/2000/svg" d="M23.2-1.25v0c0 0.333 0.277 0.5 0.83 0.5 0.547 0 1.52-0.327 2.92-0.98 1.4-0.647 2.633-1.303 3.7-1.97v0l1.6-1c0.033 0.067 0.05 0.2 0.05 0.4 0 0.2-0.15 0.367-0.45 0.5v0c-4.5 3.067-7.633 4.6-9.4 4.6v0c-0.867 0-1.3-0.433-1.3-1.3 0-0.867 0.717-2.517 2.15-4.95v0l8.8-15.3c0-0.1-0.057-0.15-0.17-0.15-0.12 0-0.347 0.157-0.68 0.47-0.333 0.32-3.373 3.413-9.12 9.28-5.753 5.867-9.13 9.317-10.13 10.35v0c-0.567 0.667-1.067 1-1.5 1v0c-0.367 0-0.55-0.217-0.55-0.65v0c0-1 2.193-4.827 6.58-11.48 4.38-6.647 6.653-10.37 6.82-11.17v0c0-0.1-0.04-0.15-0.12-0.15-0.087 0-0.37 0.24-0.85 0.72-0.487 0.487-3.947 4.08-10.38 10.78-6.433 6.7-10.167 10.633-11.2 11.8v0c-0.267 0.2-0.56 0.3-0.88 0.3-0.313 0-0.47-0.15-0.47-0.45v0c0-0.233 0.15-0.6 0.45-1.1 0.3-0.5 0.727-1.217 1.28-2.15 0.547-0.933 1.53-2.7 2.95-5.3 1.413-2.6 2.663-5.05 3.75-7.35 1.08-2.3 2.063-4.767 2.95-7.4 0.88-2.633 1.32-4.783 1.32-6.45v0c0-2.767-1.2-4.15-3.6-4.15v0c-2.767 0-5.693 0.79-8.78 2.37-3.08 1.587-5.587 3.413-7.52 5.48-1.933 2.067-2.9 3.85-2.9 5.35v0c0 1.733 1.407 2.6 4.22 2.6 2.82 0 5.507-0.877 8.06-2.63 2.547-1.747 4.353-3.62 5.42-5.62v0c0.167-0.2 0.3-0.3 0.4-0.3 0.1 0 0.15 0.223 0.15 0.67 0 0.453-0.367 1.23-1.1 2.33-0.733 1.1-1.69 2.207-2.87 3.32-1.187 1.12-2.69 2.08-4.51 2.88-1.813 0.8-3.67 1.2-5.57 1.2v0c-3.8 0-5.7-1.25-5.7-3.75v0c0-1.367 0.6-2.893 1.8-4.58 1.2-1.68 2.767-3.27 4.7-4.77 1.933-1.5 4.277-2.76 7.03-3.78 2.747-1.013 5.487-1.52 8.22-1.52v0c3.1 0 4.65 1.617 4.65 4.85v0c0 1.667-0.407 3.733-1.22 6.2-0.82 2.467-1.797 4.867-2.93 7.2v0c-2.3 4.567-4.467 8.433-6.5 11.6v0l-1.2 1.95c0.133-0.067 1.767-1.733 4.9-5v0c10.367-10.733 16-16.55 16.9-17.45v0c0.633 0 1.017 0.083 1.15 0.25 0.133 0.167 0.2 0.283 0.2 0.35v0 0.05c0 0.9-3.017 6.083-9.05 15.55v0c-2.333 3.633-3.6 5.617-3.8 5.95v0l-0.45 1c0.267 0 1.983-1.677 5.15-5.03 3.167-3.347 6.377-6.693 9.63-10.04 3.247-3.353 5.103-5.03 5.57-5.03v0c0.2 0 0.417 0.09 0.65 0.27 0.233 0.187 0.35 0.38 0.35 0.58 0 0.2-0.05 0.4-0.15 0.6v0l-8.95 16.2c-0.867 1.6-1.3 2.75-1.3 3.45zM40.3-5.95v0c-0.2 0-0.3-0.117-0.3-0.35v0l0.15-0.35c0.6-0.567 0.9-1.05 0.9-1.45v0c0-0.5-0.267-0.75-0.8-0.75v0c-1.167 0-2.743 0.807-4.73 2.42-1.98 1.62-2.97 3.063-2.97 4.33v0c0 0.533 0.35 0.8 1.05 0.8 0.7 0 1.51-0.293 2.43-0.88 0.913-0.58 1.697-1.163 2.35-1.75 0.647-0.58 1.003-0.87 1.07-0.87v0c0.333 0.033 0.5 0.2 0.5 0.5v0c0 0.133-0.257 0.567-0.77 1.3-0.52 0.733-0.78 1.317-0.78 1.75v0c0 0.333 0.277 0.5 0.83 0.5 0.547 0 1.52-0.327 2.92-0.98 1.4-0.647 2.633-1.303 3.7-1.97v0l1.6-1c0.033 0.067 0.05 0.2 0.05 0.4 0 0.2-0.15 0.367-0.45 0.5v0c-4.5 3.067-7.633 4.6-9.4 4.6v0c-0.867 0-1.3-0.433-1.3-1.3v0c0-0.367 0.067-0.75 0.2-1.15v0c-0.233 0.267-0.923 0.673-2.07 1.22-1.153 0.553-2.18 0.83-3.08 0.83-0.9 0-1.35-0.417-1.35-1.25v0c0-1.967 1.367-3.977 4.1-6.03 2.733-2.047 5.033-3.07 6.9-3.07v0c1.1 0 1.65 0.467 1.65 1.4v0c0 0.533-0.333 1.1-1 1.7-0.667 0.6-1.133 0.9-1.4 0.9zM52.15-1.2l0.5-0.2c1.6-0.667 3.317-1.567 5.15-2.7v0l0.95-0.6c0.033 0.067 0.05 0.2 0.05 0.4 0 0.2-0.15 0.367-0.45 0.5v0c-1.767 1.2-3.533 2.25-5.3 3.15-1.767 0.9-3.4 1.35-4.9 1.35v0c-1.9 0-2.85-0.683-2.85-2.05v0c0-1.633 1.143-3.477 3.43-5.53 2.28-2.047 4.537-3.07 6.77-3.07v0c0.933 0 1.4 0.4 1.4 1.2v0c0 0.467-0.417 1.05-1.25 1.75v0c-1.167 0.967-1.9 1.45-2.2 1.45-0.3 0-0.45-0.133-0.45-0.4v0c0-0.1 0.067-0.2 0.2-0.3v0c0.333-0.2 0.71-0.51 1.13-0.93 0.413-0.413 0.62-0.77 0.62-1.07v0c0-0.467-0.217-0.7-0.65-0.7v0c-0.933 0-2.3 0.84-4.1 2.52-1.8 1.687-2.7 3.047-2.7 4.08v0c0 1.167 0.633 1.75 1.9 1.75v0c0.833 0 1.75-0.2 2.75-0.6zM63.25-8v0c2.2-1.233 4.077-1.85 5.63-1.85 1.547 0 2.32 0.65 2.32 1.95v0c0 1.767-1.107 3.607-3.32 5.52-2.22 1.92-4.43 2.88-6.63 2.88v0c-0.2 0-0.45-0.1-0.75-0.3-0.3-0.2-0.45-0.533-0.45-1 0-0.467 0.373-1.017 1.12-1.65 0.753-0.633 1.203-0.95 1.35-0.95 0.153 0 0.303 0.023 0.45 0.07 0.153 0.053 0.303 0.147 0.45 0.28 0.153 0.133 0.23 0.25 0.23 0.35 0 0.1-0.083 0.233-0.25 0.4v0c-0.333 0.233-0.693 0.54-1.08 0.92-0.38 0.387-0.57 0.653-0.57 0.8 0 0.153 0.167 0.23 0.5 0.23 0.333 0 1.033-0.24 2.1-0.72 1.067-0.487 2.133-1.29 3.2-2.41 1.067-1.113 1.6-2.337 1.6-3.67v0c0-0.833-0.483-1.25-1.45-1.25v0c-1.467 0-3.2 0.567-5.2 1.7v0c-2.867 4.8-4.667 7.867-5.4 9.2v0c-2.9 5.333-5.483 9.493-7.75 12.48-2.267 2.98-4.3 4.47-6.1 4.47v0c-0.6 0-0.9-0.367-0.9-1.1v0c0-2.933 1.94-6.973 5.82-12.12 3.887-5.153 8.013-9.313 12.38-12.48v0c3.367-5.567 5.4-9.05 6.1-10.45v0c-0.367 0.433-0.983 0.95-1.85 1.55v0l-2.85 1.95c-0.2 0.067-0.383 0.1-0.55 0.1-0.167 0-0.267-0.083-0.3-0.25v0c3.133-1.967 5.45-3.767 6.95-5.4v0c0.367-0.4 0.567-0.65 0.6-0.75v0c0.1-0.1 0.333-0.133 0.7-0.1 0.367 0.033 0.55 0.2 0.55 0.5v0c0 0.133-0.243 0.59-0.73 1.37-0.48 0.787-2.453 4.03-5.92 9.73zM55.65 2.1v0l4.05-6.9c-3.833 2.9-7.45 6.777-10.85 11.63-3.4 4.847-5.1 8.42-5.1 10.72v0c0 0.3 0.1 0.45 0.3 0.45v0c2.1 0 5.967-5.3 11.6-15.9zM80.8-5.95v0c-0.2 0-0.3-0.117-0.3-0.35v0l0.15-0.35c0.6-0.567 0.9-1.05 0.9-1.45v0c0-0.5-0.267-0.75-0.8-0.75v0c-1.167 0-2.743 0.807-4.73 2.42-1.98 1.62-2.97 3.063-2.97 4.33v0c0 0.533 0.35 0.8 1.05 0.8 0.7 0 1.507-0.293 2.42-0.88 0.92-0.58 1.707-1.163 2.36-1.75 0.647-0.58 1.003-0.87 1.07-0.87v0c0.333 0.033 0.5 0.2 0.5 0.5v0c0 0.133-0.26 0.567-0.78 1.3-0.513 0.733-0.77 1.317-0.77 1.75v0c0 0.333 0.273 0.5 0.82 0.5 0.553 0 1.53-0.327 2.93-0.98 1.4-0.647 2.633-1.303 3.7-1.97v0l1.6-1c0.033 0.067 0.05 0.2 0.05 0.4 0 0.2-0.15 0.367-0.45 0.5v0c-4.5 3.067-7.633 4.6-9.4 4.6v0c-0.867 0-1.3-0.433-1.3-1.3v0c0-0.367 0.067-0.75 0.2-1.15v0c-0.233 0.267-0.927 0.673-2.08 1.22-1.147 0.553-2.17 0.83-3.07 0.83-0.9 0-1.35-0.417-1.35-1.25v0c0-1.967 1.367-3.977 4.1-6.03 2.733-2.047 5.033-3.07 6.9-3.07v0c1.1 0 1.65 0.467 1.65 1.4v0c0 0.533-0.333 1.1-1 1.7-0.667 0.6-1.133 0.9-1.4 0.9zM86.85-3.35v0c-0.133 0.067-0.26 0.1-0.38 0.1-0.113 0-0.17-0.067-0.17-0.2 0-0.133 0.05-0.25 0.15-0.35v0c1.367-0.767 2.867-2.017 4.5-3.75v0c-1.5-0.467-2.25-1.127-2.25-1.98 0-0.847 0.567-1.797 1.7-2.85 1.133-1.047 2.2-1.57 3.2-1.57v0c0.667 0 1 0.4 1 1.2v0c0 1.233-0.617 2.55-1.85 3.95v0c1.6 0.267 2.4 0.65 2.4 1.15v0c0 0.667-0.29 1.173-0.87 1.52-0.587 0.353-1.263 0.98-2.03 1.88-0.767 0.9-1.15 1.8-1.15 2.7v0c0 0.2 0.067 0.383 0.2 0.55 0.133 0.167 0.417 0.25 0.85 0.25 0.433 0 1.35-0.327 2.75-0.98 1.4-0.647 2.633-1.303 3.7-1.97v0l1.6-1c0.033 0.067 0.05 0.2 0.05 0.4 0 0.2-0.15 0.367-0.45 0.5v0c-4.5 3.067-7.633 4.6-9.4 4.6v0c-0.867 0-1.3-0.433-1.3-1.3v0c0-0.7 0.243-1.433 0.73-2.2 0.48-0.767 1.01-1.4 1.59-1.9 0.587-0.5 1.123-0.977 1.61-1.43 0.48-0.447 0.72-0.737 0.72-0.87 0-0.133-0.207-0.217-0.62-0.25-0.42-0.033-0.963-0.117-1.63-0.25v0c-1.833 1.967-3.383 3.317-4.65 4.05zM89.95-10.3v0c0 0.667 0.733 1.133 2.2 1.4v0c0.867-1.067 1.3-1.993 1.3-2.78 0-0.78-0.25-1.17-0.75-1.17-0.5 0-1.083 0.29-1.75 0.87-0.667 0.587-1 1.147-1 1.68zM107.7-15.25v0c0.5 0 0.75 0.25 0.75 0.75 0 0.5-0.233 1.007-0.7 1.52-0.467 0.52-0.983 0.78-1.55 0.78v0c-0.467 0-0.7-0.327-0.7-0.98 0-0.647 0.267-1.153 0.8-1.52 0.533-0.367 1-0.55 1.4-0.55zM103-8.65v0c0.167-0.267 0.4-0.4 0.7-0.4 0.3 0 0.6 0.15 0.9 0.45v0c0 0.133-0.217 0.433-0.65 0.9-0.433 0.467-1.167 1.507-2.2 3.12-1.033 1.62-1.55 2.697-1.55 3.23v0c0 0.333 0.25 0.533 0.75 0.6v0c0.667 0 1.7-0.327 3.1-0.98 1.4-0.647 2.633-1.303 3.7-1.97v0l1.6-1c0.033 0.067 0.05 0.2 0.05 0.4 0 0.2-0.15 0.367-0.45 0.5v0c-4.5 3.067-7.633 4.6-9.4 4.6v0c-0.867 0-1.3-0.433-1.3-1.3 0-0.867 0.473-2.077 1.42-3.63 0.953-1.547 2.063-3.053 3.33-4.52zM110.7-4.85v0c-2 0-3-0.433-3-1.3v0c0-1.033 1.183-2.26 3.55-3.68 2.367-1.413 4.5-2.12 6.4-2.12v0c0.967 0 1.45 0.3 1.45 0.9v0c0 0.333-0.25 0.7-0.75 1.1-0.5 0.4-0.983 0.717-1.45 0.95-0.467 0.233-0.733 0.35-0.8 0.35v0c-0.2 0-0.333-0.083-0.4-0.25v0c-0.067-0.233 0.11-0.477 0.53-0.73 0.413-0.247 0.62-0.52 0.62-0.82 0-0.3-0.373-0.45-1.12-0.45-0.753 0-1.93 0.523-3.53 1.57-1.6 1.053-2.4 1.913-2.4 2.58v0c0 0.5 0.583 0.75 1.75 0.75v0c0.2 0 0.567-0.017 1.1-0.05 0.533-0.033 0.8 0.033 0.8 0.2 0 0.167-0.823 0.767-2.47 1.8-1.653 1.033-2.48 1.917-2.48 2.65v0c0 0.833 0.543 1.25 1.63 1.25 1.08 0 2.303-0.283 3.67-0.85v0c2.2-0.967 4.2-2 6-3.1v0l0.95-0.6c0.033 0.067 0.05 0.2 0.05 0.4 0 0.2-0.15 0.367-0.45 0.5v0c-1.767 1.2-3.7 2.34-5.8 3.42-2.1 1.087-3.99 1.63-5.67 1.63-1.687 0-2.53-0.56-2.53-1.68 0-1.113 1.45-2.587 4.35-4.42z" fill="#000000" fill-rule="nonzero" stroke="none" stroke-width="1" stroke-linecap="butt" stroke-linejoin="miter" stroke-miterlimit="10" stroke-dasharray="" stroke-dashoffset="0" font-family="none" font-weight="none" font-size="none" text-anchor="none" style="mix-blend-mode: normal" data-fill-palette-color="primary" opacity="1"></path><path xmlns="http://www.w3.org/2000/svg" d="M21.55 30l0.25 0.2c0 0.067-0.117 0.357-0.35 0.87-0.233 0.52-3.333 6.097-9.3 16.73v0c4.933-2.033 9.333-4.827 13.2-8.38 3.867-3.547 5.8-6.637 5.8-9.27v0c0-3.167-2.967-4.75-8.9-4.75v0c-3.467 0-7.383 0.8-11.75 2.4-4.367 1.6-8.117 3.633-11.25 6.1-3.133 2.467-4.7 4.8-4.7 7v0c0 1.867 1.167 2.8 3.5 2.8v0c1.967 0 4.293-0.693 6.98-2.08 2.68-1.38 5.087-3.22 7.22-5.52v0c0.267-0.433 0.51-0.65 0.73-0.65 0.213 0 0.32 0.117 0.32 0.35v0c0 0.767-0.983 1.94-2.95 3.52-1.967 1.587-4.333 3.037-7.1 4.35-2.767 1.32-5.083 1.98-6.95 1.98v0c-2.567 0-3.85-1.317-3.85-3.95v0c0-2.3 1.807-4.883 5.42-7.75 3.62-2.867 7.947-5.29 12.98-7.27 5.033-1.987 9.45-2.98 13.25-2.98v0c6.333 0 9.5 1.75 9.5 5.25v0c0 3.033-2.24 6.6-6.72 10.7-4.487 4.1-9.647 7.267-15.48 9.5v0c-3.333 5.967-5.55 9.883-6.65 11.75v0c-0.2 0.433-0.567 0.767-1.1 1-0.533 0.233-0.94 0.35-1.22 0.35-0.287 0-0.43-0.083-0.43-0.25v0l6.65-11.9c-2.1 0.633-4.05 1.05-5.85 1.25v0c-0.2 0-0.3-0.21-0.3-0.63 0-0.413 0.183-0.637 0.55-0.67v0c1.967-0.1 4.083-0.517 6.35-1.25v0l10-17.85c0.1-0.267 0.4-0.493 0.9-0.68 0.5-0.18 0.917-0.27 1.25-0.27zM16.95 60.3v0c0.3 0 1.973-1.327 5.02-3.98 3.053-2.647 4.847-3.97 5.38-3.97 0.533 0 0.8 0.233 0.8 0.7v0c0 0.367-0.333 0.933-1 1.7-0.667 0.767-1.327 1.6-1.98 2.5-0.647 0.9-0.97 1.7-0.97 2.4v0c0 0.367 0.273 0.55 0.82 0.55 0.553 0 1.53-0.327 2.93-0.98 1.4-0.647 2.633-1.303 3.7-1.97v0l1.6-1c0.033 0.067 0.05 0.2 0.05 0.4 0 0.2-0.15 0.367-0.45 0.5v0c-4.5 3.067-7.633 4.6-9.4 4.6v0c-0.867 0-1.3-0.467-1.3-1.4v0c0-0.633 0.233-1.4 0.7-2.3 0.467-0.9 0.933-1.65 1.4-2.25v0l0.65-0.9c-1.5 1.133-3.05 2.407-4.65 3.82-1.6 1.42-2.817 2.49-3.65 3.21-0.833 0.713-1.417 1.07-1.75 1.07-0.333 0-0.5-0.24-0.5-0.72 0-0.487 0.783-2.163 2.35-5.03 1.567-2.867 3.377-5.96 5.43-9.28 2.047-3.313 4.193-6.32 6.44-9.02 2.253-2.7 3.963-4.05 5.13-4.05v0c0.5 0 0.85 0.233 1.05 0.7v0c0.1 0.167 0.15 0.367 0.15 0.6v0c0 2.3-3.45 6.717-10.35 13.25v0c-1.3 1.267-2.567 2.433-3.8 3.5v0c-2.533 4.267-3.8 6.717-3.8 7.35zM33.25 36.75v0c0-0.333-0.083-0.5-0.25-0.5v0c-0.667 0-2.067 1.467-4.2 4.4-2.133 2.933-4.4 6.35-6.8 10.25v0c7.5-6.833 11.25-11.55 11.25-14.15zM42.85 57.45v0c-1.033 0.633-2.233 0.95-3.6 0.95v0h-0.6c-0.9 1.033-1.86 1.873-2.88 2.52-1.013 0.653-1.887 0.98-2.62 0.98v0c-1.033 0-1.55-0.667-1.55-2 0-1.333 0.717-2.883 2.15-4.65v0c-0.133-0.367-0.2-0.817-0.2-1.35v0c0-1.167 0.51-2.177 1.53-3.03 1.013-0.847 2.003-1.27 2.97-1.27v0c2.033 0 3.05 1.1 3.05 3.3v0c0 1.467-0.633 3.067-1.9 4.8v0h0.6c1.067 0 1.983-0.25 2.75-0.75v0c0.1-0.1 0.233-0.15 0.4-0.15 0.167 0 0.25 0.057 0.25 0.17 0 0.12-0.117 0.28-0.35 0.48zM38.05 51.7v0c0.167-0.067 0.3-0.1 0.4-0.1 0.1 0 0.15 0.073 0.15 0.22 0 0.153-0.183 0.363-0.55 0.63v0c-1.333 1.033-2.333 1.967-3 2.8v0c0.733 1.167 1.85 1.933 3.35 2.3v0c1.3-1.533 1.95-2.967 1.95-4.3v0c0-0.767-0.25-1.35-0.75-1.75-0.5-0.4-1.14-0.6-1.92-0.6-0.787 0-1.513 0.223-2.18 0.67-0.667 0.453-1 0.937-1 1.45 0 0.52 0.05 0.93 0.15 1.23v0c1.033-1.067 2.167-1.917 3.4-2.55zM34.35 56.35v0c-0.533 0.9-0.8 1.9-0.8 3v0c0 0.6 0.267 0.9 0.8 0.9v0c0.9 0 2.017-0.667 3.35-2v0c-1.5-0.267-2.617-0.9-3.35-1.9zM43.3 44.45v0c2.267 0 4.5-0.017 6.7-0.05v0c3.567-4.567 6-6.85 7.3-6.85v0c0.467 0 0.7 0.25 0.7 0.75v0c0 1.6-1.167 3.6-3.5 6v0l3.8-0.05c2.533-0.1 4.083-0.15 4.65-0.15 0.567 0 0.85 0.067 0.85 0.2v0c0 0.633-0.433 0.967-1.3 1v0l-9.4 0.4c-1.633 1.533-3.65 3.15-6.05 4.85v0c-2.533 4.167-3.8 7-3.8 8.5v0c0 0.767 0.493 1.15 1.48 1.15 0.98 0 2.537-0.533 4.67-1.6v0l4.05-2.35c0.033 0.067 0.05 0.2 0.05 0.4 0 0.2-0.15 0.367-0.45 0.5v0c-1.067 0.733-2.233 1.467-3.5 2.2v0c-2.7 1.367-4.767 2.05-6.2 2.05v0c-0.667 0-1.183-0.133-1.55-0.4-0.367-0.267-0.567-0.533-0.6-0.8v0l-0.1-0.4c0-1.133 0.767-3.043 2.3-5.73 1.533-2.68 3.35-5.42 5.45-8.22v0c-1.6 0.067-3.117 0.1-4.55 0.1-1.433 0-2.15-0.167-2.15-0.5v0c0-0.633 0.383-0.967 1.15-1zM56.45 39.35v0c0-0.167-0.067-0.25-0.2-0.25v0c-0.767 0-2.467 1.75-5.1 5.25v0h2.5c1.867-2.033 2.8-3.7 2.8-5zM52.25 45.75v0c-1.067 0-1.783 0.017-2.15 0.05v0c-0.3 0.433-0.717 1.067-1.25 1.9-0.533 0.833-0.9 1.4-1.1 1.7v0c1.733-1.267 3.233-2.483 4.5-3.65zM63.15 57.45v0c-1.033 0.633-2.233 0.95-3.6 0.95v0h-0.6c-0.9 1.033-1.857 1.873-2.87 2.52-1.02 0.653-1.897 0.98-2.63 0.98v0c-1.033 0-1.55-0.667-1.55-2 0-1.333 0.717-2.883 2.15-4.65v0c-0.133-0.367-0.2-0.817-0.2-1.35v0c0-1.167 0.51-2.177 1.53-3.03 1.013-0.847 2.003-1.27 2.97-1.27v0c2.033 0 3.05 1.1 3.05 3.3v0c0 1.467-0.633 3.067-1.9 4.8v0h0.6c1.067 0 1.983-0.25 2.75-0.75v0c0.1-0.1 0.233-0.15 0.4-0.15 0.167 0 0.25 0.057 0.25 0.17 0 0.12-0.117 0.28-0.35 0.48zM58.35 51.7v0c0.167-0.067 0.3-0.1 0.4-0.1 0.1 0 0.15 0.073 0.15 0.22 0 0.153-0.183 0.363-0.55 0.63v0c-1.333 1.033-2.333 1.967-3 2.8v0c0.733 1.167 1.85 1.933 3.35 2.3v0c1.3-1.533 1.95-2.967 1.95-4.3v0c0-0.767-0.25-1.35-0.75-1.75-0.5-0.4-1.14-0.6-1.92-0.6-0.787 0-1.513 0.223-2.18 0.67-0.667 0.453-1 0.937-1 1.45 0 0.52 0.05 0.93 0.15 1.23v0c1.033-1.067 2.167-1.917 3.4-2.55zM54.65 56.35v0c-0.533 0.9-0.8 1.9-0.8 3v0c0 0.6 0.267 0.9 0.8 0.9v0c0.9 0 2.017-0.667 3.35-2v0c-1.5-0.267-2.617-0.9-3.35-1.9zM75.2 50.95v0c0 0.667-0.433 1.383-1.3 2.15-0.867 0.767-1.49 1.15-1.87 1.15-0.387 0-0.58-0.1-0.58-0.3v0l0.35-0.45c0.833-0.767 1.25-1.333 1.25-1.7v0c0-0.467-0.25-0.7-0.75-0.7v0c-1.2 0.033-2.867 1.1-5 3.2-2.133 2.1-3.2 3.65-3.2 4.65v0c0 0.433 0.243 0.65 0.73 0.65 0.48 0 1.153-0.223 2.02-0.67 0.867-0.453 1.617-0.913 2.25-1.38v0l1-0.7c0.1-0.067 0.283-0.267 0.55-0.6v0c0.733-0.9 1.217-1.35 1.45-1.35v0c0.533 0.067 0.8 0.3 0.8 0.7v0c-0.867 1.267-2.483 3.883-4.85 7.85v0c0.7-0.1 1.383-0.15 2.05-0.15v0c1.6 0 2.4 0.417 2.4 1.25v0c0 0.467-0.307 1.06-0.92 1.78-0.62 0.713-1.097 1.07-1.43 1.07-0.333 0-0.5-0.117-0.5-0.35v0c0-0.133 0.183-0.34 0.55-0.62 0.367-0.287 0.55-0.63 0.55-1.03v0c0-0.533-0.35-0.8-1.05-0.8-0.7 0-1.517 0.083-2.45 0.25v0c-1.467 2.533-2.623 4.51-3.47 5.93-0.853 1.413-1.913 3.003-3.18 4.77v0c-2.4 3.367-4.517 5.05-6.35 5.05v0c-1.133 0-1.7-0.583-1.7-1.75v0c0-2.067 1.41-4.767 4.23-8.1 2.813-3.333 5.937-5.583 9.37-6.75v0l2.8-5.3c-0.4 0.267-1.083 0.633-2.05 1.1v0c-1.867 0.9-3.167 1.35-3.9 1.35v0c-0.9 0-1.35-0.467-1.35-1.4 0-0.933 0.717-2.2 2.15-3.8 1.433-1.6 3.133-3.027 5.1-4.28 1.967-1.247 3.6-1.87 4.9-1.87v0c0.4 0 0.717 0.09 0.95 0.27 0.233 0.187 0.383 0.48 0.45 0.88zM54.25 78.1v0c0 0.7 0.267 1.05 0.8 1.05v0c1.7 0 5.133-4.583 10.3-13.75v0c-3.033 1.133-5.64 3.117-7.82 5.95-2.187 2.833-3.28 5.083-3.28 6.75zM75.55 57.6v0c-0.133 0.067-0.26 0.1-0.38 0.1-0.113 0-0.17-0.067-0.17-0.2 0-0.133 0.05-0.25 0.15-0.35v0c1.367-0.767 2.867-2.017 4.5-3.75v0c-1.5-0.467-2.25-1.127-2.25-1.98 0-0.847 0.567-1.797 1.7-2.85 1.133-1.047 2.2-1.57 3.2-1.57v0c0.667 0 1 0.4 1 1.2v0c0 1.233-0.617 2.55-1.85 3.95v0c1.6 0.267 2.4 0.65 2.4 1.15v0c0 0.667-0.29 1.173-0.87 1.52-0.587 0.353-1.263 0.98-2.03 1.88-0.767 0.9-1.15 1.8-1.15 2.7v0c0 0.2 0.067 0.383 0.2 0.55 0.133 0.167 0.417 0.25 0.85 0.25 0.433 0 1.35-0.327 2.75-0.98 1.4-0.647 2.633-1.303 3.7-1.97v0l1.6-1c0.033 0.067 0.05 0.2 0.05 0.4 0 0.2-0.15 0.367-0.45 0.5v0c-4.5 3.067-7.633 4.6-9.4 4.6v0c-0.867 0-1.3-0.433-1.3-1.3v0c0-0.7 0.243-1.433 0.73-2.2 0.48-0.767 1.013-1.4 1.6-1.9 0.58-0.5 1.113-0.977 1.6-1.43 0.48-0.447 0.72-0.737 0.72-0.87 0-0.133-0.207-0.217-0.62-0.25-0.42-0.033-0.963-0.117-1.63-0.25v0c-1.833 1.967-3.383 3.317-4.65 4.05zM78.65 50.65v0c0 0.667 0.733 1.133 2.2 1.4v0c0.867-1.067 1.3-1.993 1.3-2.78 0-0.78-0.25-1.17-0.75-1.17-0.5 0-1.083 0.29-1.75 0.87-0.667 0.587-1 1.147-1 1.68zM96.9 55v0c-0.2 0-0.3-0.117-0.3-0.35v0l0.15-0.35c0.6-0.567 0.9-1.05 0.9-1.45v0c0-0.5-0.267-0.75-0.8-0.75v0c-1.167 0-2.74 0.807-4.72 2.42-1.987 1.62-2.98 3.063-2.98 4.33v0c0 0.533 0.35 0.8 1.05 0.8 0.7 0 1.51-0.293 2.43-0.88 0.913-0.58 1.697-1.163 2.35-1.75 0.647-0.58 1.003-0.87 1.07-0.87v0c0.333 0.033 0.5 0.2 0.5 0.5v0c0 0.133-0.257 0.567-0.77 1.3-0.52 0.733-0.78 1.317-0.78 1.75v0c0 0.333 0.277 0.5 0.83 0.5 0.547 0 1.52-0.327 2.92-0.98 1.4-0.647 2.633-1.303 3.7-1.97v0l1.6-1c0.033 0.067 0.05 0.2 0.05 0.4 0 0.2-0.15 0.367-0.45 0.5v0c-4.5 3.067-7.633 4.6-9.4 4.6v0c-0.867 0-1.3-0.433-1.3-1.3v0c0-0.367 0.067-0.75 0.2-1.15v0c-0.233 0.267-0.923 0.673-2.07 1.22-1.153 0.553-2.18 0.83-3.08 0.83-0.9 0-1.35-0.417-1.35-1.25v0c0-1.967 1.367-3.977 4.1-6.03 2.733-2.047 5.033-3.07 6.9-3.07v0c1.1 0 1.65 0.467 1.65 1.4v0c0 0.533-0.333 1.1-1 1.7-0.667 0.6-1.133 0.9-1.4 0.9zM108.55 52.95v0c2.2-1.233 4.077-1.85 5.63-1.85 1.547 0 2.32 0.65 2.32 1.95v0c0 1.767-1.107 3.607-3.32 5.52-2.22 1.92-4.43 2.88-6.63 2.88v0c-0.2 0-0.45-0.1-0.75-0.3-0.3-0.2-0.45-0.533-0.45-1 0-0.467 0.377-1.017 1.13-1.65 0.747-0.633 1.197-0.95 1.35-0.95 0.147 0 0.297 0.023 0.45 0.07 0.147 0.053 0.297 0.147 0.45 0.28 0.147 0.133 0.22 0.25 0.22 0.35 0 0.1-0.083 0.233-0.25 0.4v0c-0.333 0.233-0.69 0.54-1.07 0.92-0.387 0.387-0.58 0.653-0.58 0.8 0 0.153 0.167 0.23 0.5 0.23 0.333 0 1.033-0.24 2.1-0.72 1.067-0.487 2.133-1.29 3.2-2.41 1.067-1.113 1.6-2.337 1.6-3.67v0c0-0.833-0.483-1.25-1.45-1.25v0c-1.467 0-3.2 0.567-5.2 1.7v0c-2.867 4.8-4.667 7.867-5.4 9.2v0c-2.9 5.333-5.483 9.493-7.75 12.48-2.267 2.98-4.3 4.47-6.1 4.47v0c-0.6 0-0.9-0.367-0.9-1.1v0c0-2.933 1.943-6.973 5.83-12.12 3.88-5.153 8.003-9.313 12.37-12.48v0c3.367-5.567 5.4-9.05 6.1-10.45v0c-0.367 0.433-0.983 0.95-1.85 1.55v0l-2.85 1.95c-0.2 0.067-0.383 0.1-0.55 0.1-0.167 0-0.267-0.083-0.3-0.25v0c3.133-1.967 5.45-3.767 6.95-5.4v0c0.367-0.4 0.567-0.65 0.6-0.75v0c0.1-0.1 0.333-0.133 0.7-0.1 0.367 0.033 0.55 0.2 0.55 0.5v0c0 0.133-0.24 0.59-0.72 1.37-0.487 0.787-2.463 4.03-5.93 9.73zM100.95 63.05v0l4.05-6.9c-3.833 2.9-7.45 6.777-10.85 11.63-3.4 4.847-5.1 8.42-5.1 10.72v0c0 0.3 0.1 0.45 0.3 0.45v0c2.1 0 5.967-5.3 11.6-15.9zM117.45 60.3v0c0.3 0 1.977-1.327 5.03-3.98 3.047-2.647 4.837-3.97 5.37-3.97 0.533 0 0.8 0.233 0.8 0.7v0c0 0.367-0.333 0.933-1 1.7-0.667 0.767-1.323 1.6-1.97 2.5-0.653 0.9-0.98 1.7-0.98 2.4v0c0 0.367 0.277 0.55 0.83 0.55 0.547 0 1.52-0.327 2.92-0.98 1.4-0.647 2.633-1.303 3.7-1.97v0l1.6-1c0.033 0.067 0.05 0.2 0.05 0.4 0 0.2-0.15 0.367-0.45 0.5v0c-4.5 3.067-7.633 4.6-9.4 4.6v0c-0.867 0-1.3-0.467-1.3-1.4v0c0-0.633 0.233-1.4 0.7-2.3 0.467-0.9 0.933-1.65 1.4-2.25v0l0.65-0.9c-1.5 1.133-3.05 2.407-4.65 3.82-1.6 1.42-2.817 2.49-3.65 3.21-0.833 0.713-1.417 1.07-1.75 1.07-0.333 0-0.5-0.24-0.5-0.72 0-0.487 0.783-2.163 2.35-5.03 1.567-2.867 3.377-5.96 5.43-9.28 2.047-3.313 4.197-6.32 6.45-9.02 2.247-2.7 3.953-4.05 5.12-4.05v0c0.5 0 0.85 0.233 1.05 0.7v0c0.1 0.167 0.15 0.367 0.15 0.6v0c0 2.3-3.45 6.717-10.35 13.25v0c-1.3 1.267-2.567 2.433-3.8 3.5v0c-2.533 4.267-3.8 6.717-3.8 7.35zM133.75 36.75v0c0-0.333-0.083-0.5-0.25-0.5v0c-0.667 0-2.067 1.467-4.2 4.4-2.133 2.933-4.4 6.35-6.8 10.25v0c7.5-6.833 11.25-11.55 11.25-14.15zM145.1 51.6c0 0.033-0.377 0.623-1.13 1.77-0.747 1.153-1.33 2.03-1.75 2.63-0.413 0.6-2.153 3.4-5.22 8.4v0c0.267-0.033 0.7-0.05 1.3-0.05v0c1.6 0 2.4 0.417 2.4 1.25v0c0 0.467-0.3 1.017-0.9 1.65-0.6 0.633-1.067 0.95-1.4 0.95-0.333 0-0.5-0.117-0.5-0.35v0c0-0.133 0.183-0.34 0.55-0.62 0.367-0.287 0.55-0.62 0.55-1 0-0.387-0.323-0.58-0.97-0.58-0.653 0-1.28 0.05-1.88 0.15v0c-3.033 4.967-5.65 8.85-7.85 11.65-2.2 2.8-4.083 4.2-5.65 4.2v0c-1.133 0-1.7-0.583-1.7-1.75v0c0-2 1.507-4.773 4.52-8.32 3.02-3.553 6.297-5.83 9.83-6.83v0l4.8-8.3c-1.4 1.267-2.84 2.383-4.32 3.35-1.487 0.967-2.613 1.45-3.38 1.45-0.767 0-1.15-0.35-1.15-1.05v0c0-1.067 1.75-4.017 5.25-8.85v0c0.167-0.267 0.383-0.4 0.65-0.4v0c0.767 0.233 1.15 0.4 1.15 0.5 0 0.1-0.1 0.3-0.3 0.6v0c-3 4.067-4.5 6.417-4.5 7.05v0c0 0.4 0.223 0.6 0.67 0.6 0.453 0 1.387-0.533 2.8-1.6 1.42-1.067 2.63-2.15 3.63-3.25v0l2.8-3.4c0.2-0.233 0.45-0.35 0.75-0.35v0c0.633 0.1 0.95 0.267 0.95 0.5zM125.8 72.63c-0.967 1.313-1.733 2.563-2.3 3.75-0.567 1.18-0.85 2.113-0.85 2.8 0 0.68 0.267 1.02 0.8 1.02v0c1.667 0 5.317-4.667 10.95-14v0c-1.667 0.533-3.277 1.41-4.83 2.63-1.547 1.213-2.803 2.48-3.77 3.8z" fill="#000000" fill-rule="nonzero" stroke="none" stroke-width="1" stroke-linecap="butt" stroke-linejoin="miter" stroke-miterlimit="10" stroke-dasharray="" stroke-dashoffset="0" font-family="none" font-weight="none" font-size="none" text-anchor="none" style="mix-blend-mode: normal" data-fill-palette-color="primary" opacity="1"></path></g></svg></g></svg></g></svg></g></svg></g><g transform="matrix(1,0,0,1,0,23.11058244462673)"><svg viewBox="0 0 154.7788351107465 154.7788351107465" height="154.7788351107465" width="154.7788351107465"><g><svg version="1.1" xmlns:dc="http://purl.org/dc/elements/1.1/" xmlns:inkscape="http://www.inkscape.org/namespaces/inkscape" xmlns:rdf="http://www.w3.org/1999/02/22-rdf-syntax-ns#" xmlns:cc="http://creativecommons.org/ns#" xmlns:svg="http://www.w3.org/2000/svg" xmlns:sodipodi="http://sodipodi.sourceforge.net/DTD/sodipodi-0.dtd" xmlns="http://www.w3.org/2000/svg" xmlns:xlink="http://www.w3.org/1999/xlink" x="0" y="0" viewBox="0 0 100 100" enable-background="new 0 0 100 100" xml:space="preserve" height="154.7788351107465" width="154.7788351107465" class="icon-icon-0" data-fill-palette-color="accent" id="icon-0"><path d="M50 0C22.386 0 0 22.386 0 50s22.386 50 50 50 50-22.386 50-50S77.614 0 50 0zM50 14.156c19.799 0 35.844 16.044 35.844 35.844 0 19.799-16.045 35.844-35.844 35.844-19.799 0-35.844-16.045-35.844-35.844C14.156 30.201 30.201 14.156 50 14.156zM50 20.125c-16.505 0-29.875 13.37-29.875 29.875S33.495 79.875 50 79.875 79.875 66.505 79.875 50 66.505 20.125 50 20.125zM50 29.75c11.178 0 20.25 9.072 20.25 20.25S61.178 70.25 50 70.25 29.75 61.178 29.75 50 38.822 29.75 50 29.75z" fill="#000000" data-fill-palette-color="accent"></path></svg></g></svg></g></svg></g><defs></defs></svg><rect width="395.52" height="173.31655158560602" fill="none" stroke="none" visibility="hidden"></rect></g></svg></g></svg>